<svg width="1178" height="242" viewBox="0 0 1178 242" fill="none" xmlns="http://www.w3.org/2000/svg">
<path d="M0 181.5V16.94H36.4199V148.588H107.803V181.5H0Z" fill="#2F2F2F"/>
<path d="M125.514 181.5V74.778H161.934V181.5H125.514ZM143.724 59.532C137.735 59.532 132.636 57.4347 128.428 53.24C124.381 49.0453 122.358 44.044 122.358 38.236C122.358 32.2667 124.381 27.2653 128.428 23.232C132.636 19.0373 137.735 16.94 143.724 16.94C149.551 16.94 154.569 19.0373 158.778 23.232C162.986 27.2653 165.09 32.2667 165.09 38.236C165.09 44.044 162.986 49.0453 158.778 53.24C154.569 57.4347 149.551 59.532 143.724 59.532Z" fill="#2F2F2F"/>
<path d="M264.699 194.084V168.674C262.271 172.223 259.033 175.127 254.987 177.386C250.94 179.645 246.57 181.258 241.876 182.226C237.182 183.355 232.568 183.92 228.036 183.92C218 183.92 208.936 181.339 200.843 176.176C192.749 171.013 186.355 164.237 181.661 155.848C177.129 147.297 174.863 138.101 174.863 128.26C174.863 118.419 177.129 109.303 181.661 100.914C186.355 92.3633 192.749 85.5067 200.843 80.344C208.936 75.02 218 72.358 228.036 72.358C234.834 72.358 241.471 73.4873 247.946 75.746C254.42 78.0047 260.005 82.038 264.699 87.846V74.778H301.119V194.81L264.699 194.084ZM314.958 242C306.703 242 299.419 240.709 293.106 238.128C286.955 235.547 281.695 232.159 277.324 227.964C273.116 223.769 269.959 219.091 267.855 213.928C265.751 208.927 264.699 204.006 264.699 199.166V188.276L301.119 189.002V190.938C301.119 194.165 301.523 197.311 302.333 200.376C303.304 203.603 304.842 206.184 306.946 208.12C309.05 210.056 311.883 211.024 315.444 211.024C319.167 211.024 322.728 209.733 326.127 207.152C329.526 204.732 332.197 202.393 334.139 200.134L351.135 224.092C345.632 230.384 339.643 234.901 333.168 237.644C326.694 240.548 320.624 242 314.958 242ZM239.205 154.88C244.061 154.88 248.35 153.67 252.073 151.25C255.958 148.669 259.033 145.361 261.3 141.328C263.566 137.295 264.699 132.939 264.699 128.26C264.699 123.581 263.566 119.225 261.3 115.192C259.033 111.159 255.958 107.932 252.073 105.512C248.35 102.931 244.061 101.64 239.205 101.64C234.349 101.64 229.978 102.931 226.094 105.512C222.371 107.932 219.376 111.159 217.11 115.192C214.844 119.225 213.711 123.581 213.711 128.26C213.711 132.939 214.844 137.295 217.11 141.328C219.376 145.361 222.371 148.669 226.094 151.25C229.978 153.67 234.349 154.88 239.205 154.88Z" fill="#2F2F2F"/>
<path d="M360.904 183.92C351.354 183.92 343.585 181.903 337.595 177.87C331.768 173.837 327.479 168.19 324.727 160.93C321.975 153.509 320.6 145.039 320.6 135.52V74.778H357.019V135.52C357.019 139.553 357.586 143.022 358.719 145.926C359.852 148.83 361.552 151.089 363.818 152.702C366.246 154.154 369.402 154.88 373.287 154.88C377.172 154.88 380.652 153.67 383.727 151.25C386.803 148.83 389.231 145.603 391.011 141.57C392.792 137.375 393.682 132.939 393.682 128.26V74.778H430.102V181.5H393.682V168.432C390.121 172.949 385.508 176.66 379.843 179.564C374.339 182.468 368.026 183.92 360.904 183.92Z" fill="#2F2F2F"/>
<path d="M450.144 181.5V74.778H486.564V181.5H450.144ZM468.354 59.532C462.365 59.532 457.267 57.4347 453.058 53.24C449.011 49.0453 446.988 44.044 446.988 38.236C446.988 32.2667 449.011 27.2653 453.058 23.232C457.267 19.0373 462.365 16.94 468.354 16.94C474.182 16.94 479.199 19.0373 483.408 23.232C487.616 27.2653 489.721 32.2667 489.721 38.236C489.721 44.044 487.616 49.0453 483.408 53.24C479.199 57.4347 474.182 59.532 468.354 59.532Z" fill="#2F2F2F"/>
<path d="M552.666 183.92C542.631 183.92 533.566 181.339 525.473 176.176C517.38 171.013 510.986 164.237 506.292 155.848C501.76 147.297 499.493 138.101 499.493 128.26C499.493 118.419 501.76 109.303 506.292 100.914C510.986 92.3633 517.38 85.5067 525.473 80.344C533.566 75.02 542.631 72.358 552.666 72.358C559.465 72.358 566.101 73.4873 572.576 75.746C579.051 78.0047 584.635 82.038 589.329 87.846V0H625.749V181.5H589.329V168.674C586.901 172.223 583.664 175.127 579.617 177.386C575.571 179.645 571.2 181.258 566.506 182.226C561.812 183.355 557.199 183.92 552.666 183.92ZM563.835 154.88C568.691 154.88 572.981 153.67 576.704 151.25C580.588 148.669 583.664 145.361 585.93 141.328C588.196 137.295 589.329 132.939 589.329 128.26C589.329 123.581 588.196 119.225 585.93 115.192C583.664 111.159 580.588 107.932 576.704 105.512C572.981 102.931 568.691 101.64 563.835 101.64C558.979 101.64 554.609 102.931 550.724 105.512C547.001 107.932 544.007 111.159 541.74 115.192C539.474 119.225 538.341 123.581 538.341 128.26C538.341 132.939 539.474 137.295 541.74 141.328C544.007 145.361 547.001 148.669 550.724 151.25C554.609 153.67 558.979 154.88 563.835 154.88Z" fill="#2F2F2F"/>
<path d="M724.14 183.92C712.485 183.92 701.478 181.742 691.119 177.386C680.921 173.03 671.857 166.98 663.925 159.236C656.156 151.331 650.086 142.296 645.715 132.132C641.345 121.807 639.16 110.836 639.16 99.22C639.16 87.604 641.345 76.714 645.715 66.55C650.086 56.2247 656.156 47.19 663.925 39.446C671.857 31.5407 680.921 25.41 691.119 21.054C701.478 16.698 712.485 14.52 724.14 14.52C736.765 14.52 748.42 17.0207 759.103 22.022C769.948 27.0233 779.336 33.88 787.268 42.592C795.199 51.1427 801.026 61.0647 804.749 72.358H764.202C760.802 64.9367 755.38 59.1287 747.934 54.934C740.488 50.578 732.557 48.4 724.14 48.4C717.503 48.4 711.271 49.7713 705.444 52.514C699.617 55.0953 694.518 58.7253 690.148 63.404C685.777 68.0827 682.297 73.4873 679.707 79.618C677.279 85.7487 676.065 92.2827 676.065 99.22C676.065 106.157 677.279 112.772 679.707 119.064C682.297 125.195 685.777 130.599 690.148 135.278C694.518 139.795 699.617 143.425 705.444 146.168C711.271 148.749 717.503 150.04 724.14 150.04C732.719 150.04 740.731 147.781 748.177 143.264C755.623 138.747 761.045 132.858 764.444 125.598H804.992C801.269 136.891 795.442 146.975 787.51 155.848C779.579 164.56 770.191 171.417 759.346 176.418C748.501 181.419 736.765 183.92 724.14 183.92Z" fill="#2F2F2F"/>
<path d="M863.061 183.92C853.025 183.92 843.961 181.339 835.867 176.176C827.774 171.013 821.38 164.237 816.686 155.848C812.154 147.297 809.888 138.101 809.888 128.26C809.888 118.419 812.154 109.303 816.686 100.914C821.38 92.3633 827.774 85.5067 835.867 80.344C843.961 75.02 853.025 72.358 863.061 72.358C869.859 72.358 876.496 73.4873 882.97 75.746C889.445 78.0047 895.029 82.038 899.724 87.846V75.02H936.143V181.5H899.724V168.674C897.296 172.223 894.058 175.127 890.012 177.386C885.965 179.645 881.595 181.258 876.9 182.226C872.206 183.355 867.593 183.92 863.061 183.92ZM874.23 154.88C879.086 154.88 883.375 153.67 887.098 151.25C890.983 148.669 894.058 145.361 896.324 141.328C898.591 137.295 899.724 132.939 899.724 128.26C899.724 123.581 898.591 119.225 896.324 115.192C894.058 111.159 890.983 107.932 887.098 105.512C883.375 102.931 879.086 101.64 874.23 101.64C869.374 101.64 865.003 102.931 861.118 105.512C857.395 107.932 854.401 111.159 852.135 115.192C849.869 119.225 848.736 123.581 848.736 128.26C848.736 132.939 849.869 137.295 852.135 141.328C854.401 145.361 857.395 148.669 861.118 151.25C865.003 153.67 869.374 154.88 874.23 154.88Z" fill="#2F2F2F"/>
<path d="M1003.7 183.92C993.177 183.92 983.627 182.549 975.048 179.806C966.631 176.902 959.833 172.385 954.653 166.254C949.473 159.962 946.56 151.815 945.912 141.812H982.089C982.089 147.136 983.384 151.008 985.974 153.428C988.564 155.687 991.64 157.139 995.201 157.784C998.762 158.429 1001.84 158.752 1004.43 158.752C1008.64 158.752 1012.2 158.026 1015.11 156.574C1018.19 154.961 1019.72 152.702 1019.72 149.798C1019.72 146.249 1018.19 143.587 1015.11 141.812C1012.03 140.037 1008.15 138.585 1003.46 137.456C999.085 136.488 994.31 135.601 989.131 134.794C983.951 133.987 978.852 132.939 973.834 131.648C968.978 130.196 964.689 128.26 960.966 125.84C957.89 123.743 955.381 121.161 953.439 118.096C951.497 114.869 950.526 110.917 950.526 106.238C950.526 98.978 952.387 92.8473 956.11 87.846C959.995 82.6833 965.741 78.8113 973.349 76.23C981.118 73.6487 990.911 72.358 1002.73 72.358C1016.81 72.358 1028.55 75.1007 1037.93 80.586C1047.48 86.0713 1053.07 94.9447 1054.69 107.206H1018.99C1018.67 104.302 1017.54 102.124 1015.6 100.672C1013.82 99.0587 1011.63 98.01 1009.04 97.526C1006.61 96.8807 1004.18 96.558 1001.76 96.558C998.195 96.558 994.877 97.3647 991.801 98.978C988.726 100.591 987.188 102.527 987.188 104.786C987.188 107.367 988.888 109.223 992.287 110.352C995.848 111.32 1000.22 112.207 1005.4 113.014C1008.8 113.498 1012.28 114.063 1015.84 114.708C1019.56 115.353 1023.2 116.16 1026.76 117.128C1030.49 117.935 1033.97 119.145 1037.2 120.758C1042.71 123.178 1047.24 126.647 1050.8 131.164C1054.52 135.681 1056.39 141.812 1056.39 149.556C1056.39 157.945 1054.12 164.641 1049.59 169.642C1045.22 174.643 1039.07 178.273 1031.13 180.532C1023.2 182.791 1014.06 183.92 1003.7 183.92Z" fill="#2F2F2F"/>
<path d="M1068.5 181.5V0H1104.92V87.846C1108.64 83.1673 1113.25 79.4567 1118.76 76.714C1124.42 73.81 1130.74 72.358 1137.7 72.358C1147.25 72.358 1154.93 74.3747 1160.76 78.408C1166.75 82.4413 1171.12 88.1687 1173.87 95.59C1176.62 102.85 1178 111.32 1178 121V181.5H1141.58V121C1141.58 116.805 1141.01 113.256 1139.88 110.352C1138.75 107.448 1136.97 105.27 1134.54 103.818C1132.27 102.366 1129.2 101.64 1125.31 101.64C1121.59 101.64 1118.11 102.85 1114.87 105.27C1111.8 107.69 1109.37 110.917 1107.59 114.95C1105.81 118.983 1104.92 123.42 1104.92 128.26V181.5H1068.5Z" fill="#2F2F2F"/>
</svg>
