<svg width="48" height="48" viewBox="0 0 48 48" fill="none" xmlns="http://www.w3.org/2000/svg">
<rect y="0.436523" width="47.1266" height="47.1266" rx="7.54025" fill="#FFDF52"/>
<path d="M36.9037 19.5488L38.6341 16.5516L22.1494 7.03418L20.419 10.0314L25.6641 13.0597C27.6153 14.1862 28.5372 16.3929 28.1522 18.4925L18.6885 13.0286L16.9581 16.0258L26.4218 21.4897C25.6095 22.1861 24.6016 22.614 23.5364 22.7146C22.4712 22.8151 21.401 22.5834 20.4728 22.0513L15.2276 19.023L13.139 22.6407L16.6771 35.845L20.9152 38.2919L17.1148 24.1089L18.7423 25.0485C20.47 26.043 22.4877 26.4113 24.4553 26.0912C26.4228 25.7711 28.2199 24.7825 29.5434 23.292L33.4428 25.5433L35.1732 22.5461L31.2738 20.2947C31.6738 19.0714 31.792 17.7735 31.6196 16.4981L36.9037 19.5488Z" fill="#181A1F"/>
</svg>
