<svg width="198" height="60" viewBox="0 0 198 60" fill="none" xmlns="http://www.w3.org/2000/svg">
<rect width="60" height="60" rx="30" fill="#FFDF52"/>
<path d="M44.9868 26.5601L46.8618 23.3125L29 13L27.125 16.2476L32.8083 19.5288C34.9225 20.7495 35.9214 23.1405 35.5043 25.4155L25.25 19.4952L23.375 22.7428L33.6293 28.6631C32.7492 29.4176 31.657 29.8813 30.5029 29.9903C29.3486 30.0992 28.1891 29.8482 27.1833 29.2716L21.5 25.9904L19.2369 29.9102L23.0705 44.2176L27.6626 46.8689L23.5448 31.5011L25.3083 32.5192C27.1803 33.5968 29.3666 33.9958 31.4985 33.649C33.6304 33.3022 35.5775 32.231 37.0117 30.6159L41.2368 33.0553L43.1118 29.8077L38.8867 27.3683C39.32 26.0428 39.4481 24.6364 39.2613 23.2545L44.9868 26.5601Z" fill="#1B1B1B"/>
<path d="M71.7275 39V22.0663H75.4629V35.6133H82.7843V39H71.7275ZM85.0989 39V28.018H88.8342V39H85.0989ZM86.9665 26.4491C86.3523 26.4491 85.8293 26.2333 85.3977 25.8016C84.9826 25.37 84.7751 24.8553 84.7751 24.2577C84.7751 23.6434 84.9826 23.1288 85.3977 22.7137C85.8293 22.2821 86.3523 22.0663 86.9665 22.0663C87.5642 22.0663 88.0789 22.2821 88.5105 22.7137C88.9421 23.1288 89.158 23.6434 89.158 24.2577C89.158 24.8553 88.9421 25.37 88.5105 25.8016C88.0789 26.2333 87.5642 26.4491 86.9665 26.4491ZM99.8723 40.2949V37.6802C99.6233 38.0454 99.2912 38.3442 98.8762 38.5767C98.4612 38.8091 98.0129 38.9751 97.5315 39.0747C97.05 39.1909 96.5769 39.249 96.112 39.249C95.0827 39.249 94.153 38.9834 93.3229 38.4521C92.4928 37.9209 91.8371 37.2236 91.3556 36.3603C90.8908 35.4804 90.6584 34.5341 90.6584 33.5214C90.6584 32.5087 90.8908 31.5707 91.3556 30.7074C91.8371 29.8276 92.4928 29.122 93.3229 28.5907C94.153 28.0429 95.0827 27.7689 96.112 27.7689C96.8093 27.7689 97.49 27.8852 98.154 28.1176C98.8181 28.35 99.3909 28.765 99.8723 29.3627V28.018H103.608V40.3696L99.8723 40.2949ZM105.027 45.2256C104.18 45.2256 103.433 45.0928 102.786 44.8272C102.155 44.5616 101.615 44.2129 101.167 43.7813C100.736 43.3496 100.412 42.8682 100.196 42.3369C99.9802 41.8223 99.8723 41.3159 99.8723 40.8179V39.6973L103.608 39.772V39.9712C103.608 40.3032 103.649 40.627 103.732 40.9424C103.832 41.2744 103.99 41.5401 104.205 41.7393C104.421 41.9385 104.712 42.0381 105.077 42.0381C105.459 42.0381 105.824 41.9053 106.173 41.6397C106.521 41.3906 106.795 41.1499 106.994 40.9175L108.738 43.3829C108.173 44.0303 107.559 44.4952 106.895 44.7774C106.231 45.0762 105.608 45.2256 105.027 45.2256ZM97.2575 36.2607C97.7556 36.2607 98.1955 36.1362 98.5774 35.8872C98.9758 35.6216 99.2912 35.2812 99.5237 34.8662C99.7561 34.4511 99.8723 34.0029 99.8723 33.5214C99.8723 33.04 99.7561 32.5917 99.5237 32.1767C99.2912 31.7617 98.9758 31.4296 98.5774 31.1806C98.1955 30.915 97.7556 30.7822 97.2575 30.7822C96.7595 30.7822 96.3112 30.915 95.9128 31.1806C95.531 31.4296 95.2238 31.7617 94.9914 32.1767C94.759 32.5917 94.6428 33.04 94.6428 33.5214C94.6428 34.0029 94.759 34.4511 94.9914 34.8662C95.2238 35.2812 95.531 35.6216 95.9128 35.8872C96.3112 36.1362 96.7595 36.2607 97.2575 36.2607ZM110.238 39.249C109.258 39.249 108.461 39.0415 107.847 38.6265C107.249 38.2114 106.809 37.6304 106.527 36.8833C106.245 36.1196 106.104 35.248 106.104 34.2685V28.018H109.839V34.2685C109.839 34.6836 109.897 35.0405 110.013 35.3393C110.13 35.6382 110.304 35.8706 110.536 36.0366C110.785 36.186 111.109 36.2607 111.508 36.2607C111.906 36.2607 112.263 36.1362 112.578 35.8872C112.894 35.6382 113.143 35.3061 113.326 34.8911C113.508 34.4594 113.599 34.0029 113.599 33.5214V28.018H117.335V39H113.599V37.6553C113.234 38.1201 112.761 38.5019 112.18 38.8008C111.616 39.0996 110.968 39.249 110.238 39.249ZM119.889 39V28.018H123.624V39H119.889ZM121.756 26.4491C121.142 26.4491 120.619 26.2333 120.187 25.8016C119.772 25.37 119.565 24.8553 119.565 24.2577C119.565 23.6434 119.772 23.1288 120.187 22.7137C120.619 22.2821 121.142 22.0663 121.756 22.0663C122.354 22.0663 122.869 22.2821 123.3 22.7137C123.732 23.1288 123.948 23.6434 123.948 24.2577C123.948 24.8553 123.732 25.37 123.3 25.8016C122.869 26.2333 122.354 26.4491 121.756 26.4491ZM130.902 39.249C129.872 39.249 128.943 38.9834 128.113 38.4521C127.282 37.9209 126.627 37.2236 126.145 36.3603C125.68 35.4804 125.448 34.5341 125.448 33.5214C125.448 32.5087 125.68 31.5707 126.145 30.7074C126.627 29.8276 127.282 29.122 128.113 28.5907C128.943 28.0429 129.872 27.7689 130.902 27.7689C131.599 27.7689 132.28 27.8852 132.944 28.1176C133.608 28.35 134.181 28.765 134.662 29.3627V20.3231H138.397V39H134.662V37.6802C134.413 38.0454 134.081 38.3442 133.666 38.5767C133.251 38.8091 132.803 38.9751 132.321 39.0747C131.84 39.1909 131.367 39.249 130.902 39.249ZM132.047 36.2607C132.545 36.2607 132.985 36.1362 133.367 35.8872C133.765 35.6216 134.081 35.2812 134.313 34.8662C134.546 34.4511 134.662 34.0029 134.662 33.5214C134.662 33.04 134.546 32.5917 134.313 32.1767C134.081 31.7617 133.765 31.4296 133.367 31.1806C132.985 30.915 132.545 30.7822 132.047 30.7822C131.549 30.7822 131.101 30.915 130.702 31.1806C130.321 31.4296 130.013 31.7617 129.781 32.1767C129.549 32.5917 129.432 33.04 129.432 33.5214C129.432 34.0029 129.549 34.4511 129.781 34.8662C130.013 35.2812 130.321 35.6216 130.702 35.8872C131.101 36.1362 131.549 36.2607 132.047 36.2607ZM148.987 39.249C147.791 39.249 146.663 39.0249 145.6 38.5767C144.554 38.1284 143.624 37.5058 142.811 36.709C142.014 35.8955 141.391 34.9658 140.943 33.9199C140.495 32.8574 140.271 31.7285 140.271 30.5331C140.271 29.3378 140.495 28.2172 140.943 27.1713C141.391 26.1088 142.014 25.1791 142.811 24.3822C143.624 23.5687 144.554 22.9378 145.6 22.4896C146.663 22.0414 147.791 21.8172 148.987 21.8172C150.282 21.8172 151.477 22.0746 152.573 22.5892C153.685 23.1039 154.648 23.8094 155.461 24.7059C156.275 25.5858 156.873 26.6068 157.254 27.7689H153.096C152.747 27.0053 152.191 26.4076 151.427 25.976C150.664 25.5277 149.85 25.3036 148.987 25.3036C148.306 25.3036 147.667 25.4447 147.069 25.7269C146.472 25.9926 145.949 26.3661 145.5 26.8475C145.052 27.329 144.695 27.8852 144.43 28.516C144.181 29.1469 144.056 29.8193 144.056 30.5331C144.056 31.247 144.181 31.9277 144.43 32.5751C144.695 33.206 145.052 33.7622 145.5 34.2436C145.949 34.7085 146.472 35.082 147.069 35.3642C147.667 35.6299 148.306 35.7627 148.987 35.7627C149.867 35.7627 150.688 35.5302 151.452 35.0654C152.216 34.6005 152.772 33.9946 153.121 33.2475H157.279C156.897 34.4096 156.3 35.4472 155.486 36.3603C154.673 37.2568 153.71 37.9624 152.598 38.477C151.485 38.9917 150.282 39.249 148.987 39.249ZM163.733 39.249C162.704 39.249 161.774 38.9834 160.944 38.4521C160.114 37.9209 159.458 37.2236 158.977 36.3603C158.512 35.4804 158.28 34.5341 158.28 33.5214C158.28 32.5087 158.512 31.5707 158.977 30.7074C159.458 29.8276 160.114 29.122 160.944 28.5907C161.774 28.0429 162.704 27.7689 163.733 27.7689C164.43 27.7689 165.111 27.8852 165.775 28.1176C166.439 28.35 167.012 28.765 167.493 29.3627V28.0429H171.229V39H167.493V37.6802C167.244 38.0454 166.912 38.3442 166.497 38.5767C166.082 38.8091 165.634 38.9751 165.153 39.0747C164.671 39.1909 164.198 39.249 163.733 39.249ZM164.879 36.2607C165.377 36.2607 165.817 36.1362 166.199 35.8872C166.597 35.6216 166.912 35.2812 167.145 34.8662C167.377 34.4511 167.493 34.0029 167.493 33.5214C167.493 33.04 167.377 32.5917 167.145 32.1767C166.912 31.7617 166.597 31.4296 166.199 31.1806C165.817 30.915 165.377 30.7822 164.879 30.7822C164.381 30.7822 163.932 30.915 163.534 31.1806C163.152 31.4296 162.845 31.7617 162.613 32.1767C162.38 32.5917 162.264 33.04 162.264 33.5214C162.264 34.0029 162.38 34.4511 162.613 34.8662C162.845 35.2812 163.152 35.6216 163.534 35.8872C163.932 36.1362 164.381 36.2607 164.879 36.2607ZM178.656 39.249C177.577 39.249 176.597 39.1079 175.717 38.8257C174.854 38.5269 174.157 38.062 173.625 37.4311C173.094 36.7837 172.795 35.9453 172.729 34.916H176.439C176.439 35.4638 176.572 35.8623 176.838 36.1113C177.103 36.3437 177.419 36.4931 177.784 36.5595C178.149 36.626 178.465 36.6592 178.73 36.6592C179.162 36.6592 179.527 36.5845 179.826 36.435C180.142 36.269 180.299 36.0366 180.299 35.7378C180.299 35.3725 180.142 35.0986 179.826 34.916C179.511 34.7334 179.112 34.5839 178.631 34.4677C178.183 34.3681 177.693 34.2768 177.161 34.1938C176.63 34.1108 176.107 34.0029 175.593 33.8701C175.095 33.7207 174.655 33.5214 174.273 33.2724C173.957 33.0566 173.7 32.791 173.501 32.4755C173.302 32.1435 173.202 31.7368 173.202 31.2553C173.202 30.5082 173.393 29.8774 173.775 29.3627C174.173 28.8315 174.763 28.433 175.543 28.1674C176.34 27.9018 177.344 27.7689 178.556 27.7689C180 27.7689 181.204 28.0512 182.167 28.6156C183.146 29.1801 183.719 30.0932 183.885 31.3549H180.225C180.191 31.0561 180.075 30.832 179.876 30.6825C179.693 30.5165 179.469 30.4086 179.204 30.3588C178.954 30.2924 178.705 30.2592 178.456 30.2592C178.091 30.2592 177.751 30.3422 177.435 30.5082C177.12 30.6742 176.962 30.8735 176.962 31.1059C176.962 31.3715 177.137 31.5624 177.485 31.6786C177.85 31.7783 178.299 31.8696 178.83 31.9526C179.179 32.0024 179.536 32.0605 179.901 32.1269C180.283 32.1933 180.656 32.2763 181.021 32.3759C181.403 32.4589 181.76 32.5834 182.092 32.7495C182.657 32.9985 183.122 33.3554 183.487 33.8203C183.869 34.2851 184.06 34.916 184.06 35.7129C184.06 36.5762 183.827 37.2651 183.362 37.7798C182.914 38.2944 182.283 38.668 181.47 38.9004C180.656 39.1328 179.718 39.249 178.656 39.249ZM185.8 39V20.3231H189.535V29.3627C189.917 28.8813 190.39 28.4994 190.955 28.2172C191.536 27.9184 192.183 27.7689 192.897 27.7689C193.876 27.7689 194.665 27.9765 195.263 28.3915C195.877 28.8065 196.325 29.3959 196.607 30.1596C196.89 30.9067 197.031 31.7783 197.031 32.7744V39H193.295V32.7744C193.295 32.3427 193.237 31.9775 193.121 31.6786C193.005 31.3798 192.822 31.1557 192.573 31.0063C192.341 30.8569 192.025 30.7822 191.627 30.7822C191.245 30.7822 190.888 30.9067 190.556 31.1557C190.241 31.4047 189.992 31.7368 189.809 32.1518C189.626 32.5668 189.535 33.0234 189.535 33.5214V39H185.8Z" fill="white"/>
</svg>
